<?xml version="1.0" standalone="no"?>
<!DOCTYPE svg PUBLIC "-//W3C//DTD SVG 20010904//EN"
 "http://www.w3.org/TR/2001/REC-SVG-20010904/DTD/svg10.dtd">
<svg version="1.0" xmlns="http://www.w3.org/2000/svg"
 width="1034.000000pt" height="517.000000pt" viewBox="0 0 1034.000000 517.000000"
 preserveAspectRatio="xMidYMid meet">

<g transform="translate(0.000000,517.000000) scale(0.100000,-0.100000)"
fill="#000000" stroke="none">
<path d="M2254 4778 c3 -13 5 -40 5 -60 1 -40 21 -54 21 -15 l0 22 21 -25 c17
-20 19 -21 13 -5 -4 11 -7 33 -7 48 0 20 -3 25 -10 18 -18 -18 -27 -13 -27 14
0 14 -4 25 -10 25 -5 0 -8 -10 -6 -22z"/>
<path d="M2055 4726 c9 -69 14 -79 39 -72 11 3 27 6 34 6 7 0 10 5 6 11 -3 6
-17 8 -29 5 -21 -5 -24 -1 -30 32 -10 60 -28 76 -20 18z"/>
<path d="M2354 4758 c-5 -8 -2 -9 10 -5 28 11 40 -4 14 -17 -33 -17 -31 -51 5
-51 25 -1 27 2 27 42 0 39 -2 43 -24 43 -14 0 -28 -5 -32 -12z m46 -49 c0 -5
-10 -9 -21 -9 -18 0 -19 2 -9 15 12 15 30 12 30 -6z"/>
<path d="M2453 4753 c-4 -10 2 -23 15 -34 29 -23 28 -33 -4 -25 -17 5 -23 3
-19 -4 9 -15 52 -12 59 5 5 15 -18 45 -35 45 -6 0 -8 4 -4 10 3 5 12 7 20 3 8
-3 15 0 15 6 0 17 -40 13 -47 -6z"/>
<path d="M2161 4742 c-14 -26 -3 -60 21 -67 24 -8 48 11 48 39 0 43 -50 63
-69 28z m47 -25 c2 -19 -1 -27 -13 -27 -19 0 -30 24 -21 46 9 23 31 11 34 -19z"/>
<path d="M2547 4753 c-4 -3 -7 -22 -6 -42 l0 -36 12 35 c15 44 33 40 29 -5 -2
-19 2 -35 7 -35 5 0 11 14 13 32 5 50 28 48 28 -4 0 -31 3 -39 10 -28 5 8 10
29 10 46 0 29 -3 32 -37 38 -49 8 -58 7 -66 -1z"/>
<path d="M2790 4726 c-5 -13 -11 -41 -15 -62 -5 -34 -4 -36 6 -17 7 14 23 23
43 25 25 2 32 8 34 30 3 22 -2 30 -23 38 -35 13 -34 14 -45 -14z m47 -12 c8
-21 -13 -42 -28 -27 -13 13 -5 43 11 43 6 0 13 -7 17 -16z"/>
<path d="M1918 4733 c7 -3 16 -2 19 1 4 3 -2 6 -13 5 -11 0 -14 -3 -6 -6z"/>
<path d="M2686 4709 c-3 -17 -6 -39 -6 -48 1 -14 2 -14 9 -1 13 23 21 80 12
80 -5 0 -11 -14 -15 -31z"/>
<path d="M1927 4704 c-14 -14 -7 -26 8 -14 23 19 31 3 10 -20 -29 -32 -3 -65
33 -41 20 12 1 75 -24 79 -11 2 -23 0 -27 -4z m39 -59 c-3 -9 -11 -13 -16 -10
-8 5 -7 11 1 21 14 18 24 11 15 -11z"/>
<path d="M1831 4671 c-11 -7 -11 -15 -1 -45 6 -20 15 -36 20 -36 5 0 4 14 -2
31 -17 50 6 60 31 13 22 -43 27 -35 10 15 -11 31 -31 39 -58 22z"/>
<path d="M2895 4670 c-3 -5 3 -10 14 -10 12 0 21 -4 21 -10 0 -5 -11 -10 -25
-10 -45 0 -45 -44 -1 -52 23 -4 50 59 33 80 -11 15 -33 16 -42 2z m25 -49 c0
-14 -18 -23 -30 -16 -6 4 -8 11 -5 16 8 12 35 12 35 0z"/>
<path d="M1725 4660 c-13 -6 -15 -9 -5 -9 8 0 22 4 30 9 18 12 2 12 -25 0z"/>
<path d="M3045 4650 c-3 -5 -1 -10 4 -10 6 0 11 5 11 10 0 6 -2 10 -4 10 -3 0
-8 -4 -11 -10z"/>
<path d="M1738 4630 c-15 -9 -15 -13 -1 -50 9 -22 20 -37 24 -34 5 3 3 17 -5
32 -14 28 -11 52 5 52 6 0 17 -17 26 -37 9 -21 18 -33 20 -26 6 16 -25 73 -40
73 -6 0 -20 -5 -29 -10z"/>
<path d="M2967 4601 c-9 -22 -21 -42 -27 -46 -13 -8 -13 -25 0 -25 10 0 32 38
50 85 5 14 6 25 1 25 -5 0 -16 -18 -24 -39z"/>
<path d="M4548 4630 c-138 -17 -247 -67 -328 -149 -67 -69 -104 -135 -130
-237 -25 -98 -25 -180 0 -279 55 -214 192 -322 555 -435 120 -38 175 -68 212
-116 51 -68 40 -188 -24 -246 -49 -44 -137 -59 -218 -37 -63 17 -126 89 -152
174 -12 39 -23 81 -25 95 -2 18 -9 24 -23 23 -11 -1 -90 -7 -175 -13 -85 -6
-170 -13 -189 -16 l-34 -5 7 -65 c13 -130 85 -302 163 -394 45 -52 114 -94
208 -126 70 -24 99 -28 240 -31 189 -6 269 7 381 63 182 90 304 307 304 541 0
223 -86 385 -255 484 -74 44 -214 98 -360 140 -173 50 -212 76 -222 147 -6 44
11 84 51 122 38 34 135 40 199 12 53 -24 104 -92 113 -153 11 -65 4 -63 190
-50 237 17 234 16 234 49 -1 56 -30 166 -65 237 -61 128 -167 211 -319 250
-74 19 -249 27 -338 15z"/>
<path d="M3016 4585 c-9 -22 -24 -46 -33 -52 -18 -14 -12 -30 6 -18 17 10 53
85 48 98 -2 7 -12 -6 -21 -28z"/>
<path d="M2236 4594 c-4 -10 -6 -57 -5 -106 1 -74 4 -86 15 -77 10 8 14 36 14
93 0 83 -11 124 -24 90z"/>
<path d="M5580 4602 c-7 -3 -10 -312 -10 -903 l0 -899 220 0 220 0 0 903 0
902 -210 0 c-115 0 -214 -1 -220 -3z"/>
<path d="M6340 3703 l0 -903 23 0 c631 -6 892 4 1024 39 125 34 232 172 267
343 20 97 20 159 0 255 -32 157 -117 260 -250 307 l-39 13 30 15 c127 66 205
213 205 383 -1 191 -87 343 -235 412 l-60 28 -483 5 -482 5 0 -902z m740 521
c59 -24 85 -72 84 -154 -1 -77 -21 -122 -67 -150 -28 -17 -51 -20 -174 -20
l-143 0 0 170 0 170 130 0 c95 0 140 -4 170 -16z m55 -694 c117 -57 115 -268
-2 -326 -32 -16 -62 -19 -193 -19 l-155 0 -3 183 -2 182 157 0 c136 0 162 -3
198 -20z"/>
<path d="M8265 4600 c-1 -3 -17 -54 -34 -115 -18 -60 -41 -137 -51 -170 -11
-33 -54 -175 -95 -315 -42 -140 -103 -343 -135 -450 -222 -738 -223 -742 -212
-749 5 -3 107 -5 225 -3 l215 3 34 142 33 142 256 3 257 2 32 -137 c18 -76 36
-142 40 -146 7 -8 449 -11 457 -4 2 3 -3 24 -11 48 -8 24 -56 184 -106 354
-51 171 -114 384 -141 475 -28 91 -61 203 -75 250 -14 47 -36 121 -50 165 -13
44 -53 176 -87 293 l-63 213 -243 2 c-134 1 -244 0 -246 -3z m320 -794 c41
-170 75 -312 75 -317 0 -5 -70 -9 -155 -9 -146 0 -155 1 -155 19 0 17 133 574
146 610 2 8 6 12 9 9 2 -2 38 -143 80 -312z"/>
<path d="M1653 4593 c-7 -2 -13 -12 -13 -20 0 -13 3 -13 15 -3 21 17 29 7 14
-18 -12 -19 -7 -52 8 -52 4 0 16 7 27 15 18 14 18 15 0 46 -20 34 -31 41 -51
32z m47 -52 c0 -12 -20 -25 -27 -18 -7 7 6 27 18 27 5 0 9 -4 9 -9z"/>
<path d="M3066 4571 c-21 -23 -18 -49 6 -65 24 -15 60 19 56 53 -4 33 -37 39
-62 12z m50 -6 c7 -18 -12 -45 -32 -45 -17 0 -18 32 -2 48 16 16 27 15 34 -3z"/>
<path d="M1542 4564 l-22 -15 22 -40 c30 -53 52 -72 43 -38 -4 17 -1 30 9 38
21 18 20 34 -2 54 -23 21 -22 21 -50 1z m44 -15 c3 -6 0 -17 -8 -25 -13 -13
-16 -13 -28 1 -12 14 -11 18 1 26 19 12 26 11 35 -2z"/>
<path d="M3180 4557 c-19 -15 -51 -83 -43 -91 12 -12 25 -6 20 8 -3 8 4 25 16
38 12 14 23 32 25 41 3 20 2 20 -18 4z"/>
<path d="M3201 4486 c-19 -22 -10 -60 15 -64 25 -4 57 30 52 55 -4 23 -50 29
-67 9z m49 -15 c0 -25 -27 -48 -41 -34 -8 8 -7 17 0 32 14 26 41 28 41 2z"/>
<path d="M1396 4221 l-88 -87 72 -77 c46 -50 69 -81 64 -89 -4 -7 -25 -35 -45
-63 -51 -69 -112 -184 -147 -280 -31 -85 -66 -234 -57 -244 10 -9 23 20 30 67
9 58 68 229 105 302 16 31 54 94 84 140 31 46 56 89 56 97 0 7 -27 41 -60 76
-33 34 -60 69 -60 78 0 8 29 41 65 73 61 54 96 97 78 95 -4 0 -48 -40 -97 -88z"/>
<path d="M3229 4204 c-30 -31 -45 -52 -34 -46 26 13 100 90 94 97 -3 2 -30
-21 -60 -51z"/>
<path d="M2532 4238 c3 -7 15 -14 29 -16 52 -7 178 -46 251 -78 74 -32 208
-112 208 -124 0 -6 -101 -102 -259 -246 -31 -29 -54 -54 -51 -58 7 -6 24 8
173 148 64 60 126 115 137 123 44 31 19 63 -99 133 -95 55 -232 104 -355 125
-29 5 -37 3 -34 -7z"/>
<path d="M2149 4225 c-53 -13 -203 -74 -197 -81 2 -1 46 12 98 30 52 19 114
37 138 41 l43 7 -3 -236 c-2 -130 -1 -236 2 -236 4 0 11 5 18 12 15 15 17 430
2 459 -12 22 -24 22 -101 4z"/>
<path d="M1704 4198 l-19 -23 25 20 c14 11 27 21 29 22 2 2 0 3 -6 3 -5 0 -18
-10 -29 -22z"/>
<path d="M1920 4130 c-9 -6 -10 -10 -3 -10 6 0 15 5 18 10 8 12 4 12 -15 0z"/>
<path d="M1581 3840 c8 -5 84 -81 167 -168 l152 -160 -26 -56 c-14 -31 -24
-62 -21 -69 4 -12 67 115 67 136 0 5 -40 51 -88 101 -49 50 -117 121 -152 159
-47 50 -70 67 -89 67 -21 -1 -23 -3 -10 -10z"/>
<path d="M3215 3820 c-3 -5 -1 -10 5 -10 33 0 148 -237 177 -362 8 -38 19 -68
24 -68 31 0 -24 190 -94 324 -57 106 -94 145 -112 116z"/>
<path d="M2299 3749 c-40 -9 -149 -55 -149 -62 0 -3 21 3 48 13 106 40 244 45
359 11 123 -36 252 -149 314 -277 105 -215 52 -464 -134 -629 -42 -38 -45 -43
-19 -28 61 33 120 100 160 180 90 181 94 299 17 474 -40 89 -56 113 -112 167
-124 121 -335 187 -484 151z"/>
<path d="M2351 3686 c-9 -11 -9 -15 1 -18 11 -4 11 -14 0 -54 -7 -27 -18 -51
-23 -53 -6 -1 -34 -24 -64 -50 -39 -35 -74 -54 -136 -75 -133 -44 -149 -53
-149 -76 0 -15 12 -26 45 -40 55 -24 61 -51 13 -65 -27 -8 -33 -15 -34 -40 0
-16 3 -36 9 -42 6 -9 6 -17 -1 -25 -5 -7 -9 -31 -8 -53 l1 -40 60 -12 c118
-25 106 -16 103 -86 l-3 -62 -37 -9 c-44 -11 -49 -33 -14 -58 31 -23 45 -24
89 -9 44 15 53 11 37 -18 -9 -18 -7 -23 15 -33 20 -9 28 -8 43 5 16 14 44 17
184 17 l165 0 46 41 46 40 -5 82 c-4 45 -13 120 -21 167 -8 47 -17 104 -20
128 l-6 42 62 27 c90 39 84 52 -46 98 -137 48 -149 55 -214 110 -64 54 -69 63
-78 123 -5 37 -10 48 -27 50 -11 2 -26 -4 -33 -12z m50 -64 c1 -43 10 -56 77
-112 61 -50 160 -98 270 -131 23 -6 42 -15 42 -19 0 -3 -25 -17 -55 -29 -68
-28 -74 -47 -51 -145 9 -39 16 -85 16 -102 0 -17 3 -34 7 -38 4 -4 8 -43 9
-86 1 -75 0 -80 -20 -80 -17 0 -18 -2 -6 -10 8 -5 12 -11 10 -13 -64 -49 -54
-47 -228 -47 -138 0 -168 -3 -183 -16 -29 -27 -43 -12 -18 20 l22 28 -54 -5
c-30 -2 -64 -8 -76 -12 -35 -11 -27 8 10 25 l32 15 2 123 c1 75 -2 122 -8 122
-6 0 -7 -4 -4 -10 4 -6 -2 -7 -17 -1 -15 5 -23 17 -23 31 0 29 -18 36 -35 15
-7 -8 -18 -15 -25 -15 -7 0 -16 -7 -19 -16 -3 -8 -11 -12 -17 -8 -9 5 -7 11 5
20 13 9 17 24 15 56 -2 24 -1 48 2 53 3 6 4 16 3 23 -1 6 -2 22 -3 35 -1 17
-13 29 -47 45 -26 13 -45 25 -43 27 3 2 55 22 117 44 92 33 124 50 181 97 60
49 72 64 82 105 13 51 29 56 30 11z m-344 -388 c-3 -3 -12 -4 -19 -1 -8 3 -5
6 6 6 11 1 17 -2 13 -5z m-11 -51 c-10 -10 -19 5 -10 18 6 11 8 11 12 0 2 -7
1 -15 -2 -18z m-10 -60 c-10 -10 -19 5 -10 18 6 11 8 11 12 0 2 -7 1 -15 -2
-18z m139 -43 c3 -6 -1 -7 -9 -4 -18 7 -21 14 -7 14 6 0 13 -4 16 -10z m-128
-6 c-3 -3 -12 -4 -19 -1 -8 3 -5 6 6 6 11 1 17 -2 13 -5z m68 -14 l20 -9 -20
0 c-11 0 -29 4 -40 9 l-20 9 20 0 c11 0 29 -4 40 -9z m52 -16 c-3 -3 -12 -4
-19 -1 -8 3 -5 6 6 6 11 1 17 -2 13 -5z m31 -86 c-2 -62 -7 -82 -18 -85 -12
-4 -12 -3 -2 5 10 7 13 30 10 86 -1 42 1 76 5 76 4 0 7 -37 5 -82z m-63 -98
c-27 -12 -43 -12 -25 0 8 5 22 9 30 9 10 0 8 -3 -5 -9z"/>
<path d="M2376 3583 c-11 -11 -6 -23 9 -23 8 0 15 4 15 9 0 13 -16 22 -24 14z"/>
<path d="M2383 3510 c-9 -36 -8 -40 8 -40 11 0 19 -6 19 -14 0 -7 14 -19 30
-26 17 -7 30 -17 30 -22 0 -5 32 -8 71 -6 l70 2 -38 19 c-21 11 -62 40 -92 65
-30 26 -52 42 -50 37 22 -48 36 -65 61 -76 16 -6 27 -14 24 -16 -12 -12 -68
32 -92 72 -14 25 -27 45 -28 45 -1 0 -7 -18 -13 -40z m177 -90 c8 -5 11 -10 5
-10 -5 0 -17 5 -25 10 -8 5 -10 10 -5 10 6 0 17 -5 25 -10z"/>
<path d="M2292 3486 c-26 -24 -68 -53 -94 -65 -51 -23 -66 -37 -21 -20 19 7
29 7 31 0 6 -18 19 -13 58 24 20 19 40 32 45 30 4 -3 13 5 19 17 11 22 10 22
-4 4 -18 -23 -21 -14 -5 15 5 11 14 17 18 15 4 -3 8 1 8 9 0 21 -3 20 -55 -29z
m-38 -61 c-10 -8 -23 -14 -29 -14 -5 0 -1 6 9 14 11 8 24 15 30 15 5 0 1 -7
-10 -15z"/>
<path d="M2086 3368 c3 -4 -10 -8 -28 -8 -28 -1 -30 -2 -15 -11 10 -6 27 -9
38 -6 10 3 17 1 13 -4 -3 -5 0 -9 5 -9 6 0 11 -18 11 -40 0 -22 5 -40 10 -40
6 0 10 18 10 40 0 22 -4 40 -10 40 -5 0 -10 5 -10 10 0 6 17 10 37 10 33 0 35
-1 19 -13 -15 -11 -17 -21 -11 -55 7 -44 11 -47 34 -33 9 6 12 24 10 60 -4 46
-2 51 14 47 10 -2 14 0 10 6 -4 7 -1 8 7 3 7 -4 42 -7 78 -7 47 0 61 -3 49 -9
-9 -6 -17 -18 -17 -27 1 -16 1 -16 11 1 5 9 21 17 34 17 13 0 29 -8 34 -17 6
-10 11 -13 11 -6 0 6 -9 18 -20 26 -18 12 -8 14 87 13 106 -1 139 -8 128 -27
-4 -5 3 -9 15 -9 12 0 19 4 16 9 -4 5 3 7 14 4 23 -6 80 15 80 29 0 5 -14 7
-32 3 -23 -4 -29 -3 -19 4 10 6 -93 9 -302 9 -174 -1 -314 -5 -311 -10z m91
-70 c-3 -8 -6 -5 -6 6 -1 11 2 17 5 13 3 -3 4 -12 1 -19z"/>
<path d="M2235 3342 c-6 -4 -10 -26 -11 -49 -1 -60 23 -57 28 3 3 47 -1 58
-17 46z"/>
<path d="M2275 3340 c-4 -6 -4 -29 0 -50 5 -30 11 -40 26 -40 15 0 19 7 19 34
0 19 3 41 6 50 5 12 0 16 -19 16 -14 0 -29 -5 -32 -10z m22 -32 c-3 -8 -6 -5
-6 6 -1 11 2 17 5 13 3 -3 4 -12 1 -19z"/>
<path d="M2440 3299 c0 -42 3 -50 17 -47 19 4 39 58 30 82 -4 9 -16 16 -27 16
-17 0 -20 -6 -20 -51z m27 9 c-3 -8 -6 -5 -6 6 -1 11 2 17 5 13 3 -3 4 -12 1
-19z"/>
<path d="M2555 3329 c-12 -36 3 -89 25 -89 14 0 20 7 21 23 1 12 3 33 4 47 4
40 -38 57 -50 19z m26 -46 c-9 -15 -10 -12 -10 17 0 29 1 32 10 18 7 -12 7
-24 0 -35z"/>
<path d="M2504 3325 c-3 -8 -4 -20 -1 -27 3 -7 6 -3 6 9 1 12 9 24 19 26 16 4
16 5 -1 6 -10 0 -20 -6 -23 -14z"/>
<path d="M2361 3314 c0 -11 3 -14 6 -6 3 7 2 16 -1 19 -3 4 -6 -2 -5 -13z"/>
<path d="M2390 3320 c0 -5 5 -10 11 -10 5 0 7 5 4 10 -3 6 -8 10 -11 10 -2 0
-4 -4 -4 -10z"/>
<path d="M2619 3303 c-5 -44 -3 -60 7 -60 8 0 10 7 5 21 -5 12 -6 27 -4 34 3
6 2 12 -1 12 -3 0 -6 -3 -7 -7z"/>
<path d="M2643 3288 c-2 -18 0 -20 7 -8 12 18 13 30 2 30 -4 0 -9 -10 -9 -22z"/>
<path d="M2422 3280 c0 -14 2 -19 5 -12 2 6 2 18 0 25 -3 6 -5 1 -5 -13z"/>
<path d="M2491 3264 c0 -11 3 -14 6 -6 3 7 2 16 -1 19 -3 4 -6 -2 -5 -13z"/>
<path d="M2511 3264 c0 -11 3 -14 6 -6 3 7 2 16 -1 19 -3 4 -6 -2 -5 -13z"/>
<path d="M2097 3233 c-2 -5 -4 -20 -5 -35 -2 -31 12 -36 34 -13 14 13 13 15
-3 16 -14 0 -13 2 5 10 13 5 20 13 17 19 -7 12 -42 14 -48 3z"/>
<path d="M2195 3230 c-4 -6 12 -10 40 -10 28 0 44 4 40 10 -3 6 -21 10 -40 10
-19 0 -37 -4 -40 -10z"/>
<path d="M2485 3230 c-4 -6 8 -10 28 -10 l34 0 -4 -45 c-5 -42 -3 -45 19 -45
12 0 19 4 13 8 -15 11 -18 45 -4 40 7 -2 14 -22 16 -44 1 -21 0 -33 -3 -26 -3
6 -15 12 -27 11 -21 0 -21 -1 -2 -9 17 -7 17 -9 3 -9 -10 -1 -18 -8 -18 -16 0
-12 15 -15 74 -15 l73 0 -9 52 c-10 54 -23 72 -46 63 -7 -3 -10 0 -7 5 3 6 13
10 21 10 8 0 14 4 14 9 0 15 -41 24 -53 12 -8 -8 -7 -11 2 -11 11 0 11 -3 1
-15 -9 -11 -16 -12 -31 -2 -10 6 -19 17 -19 23 0 22 -63 33 -75 14z m167 -67
c-6 -2 -9 -10 -6 -15 4 -7 2 -8 -4 -4 -18 11 -14 26 6 25 10 0 12 -3 4 -6z
m-14 -39 c21 -22 24 -44 6 -44 -8 0 -14 7 -14 15 0 9 -6 12 -15 9 -10 -4 -15
0 -15 15 0 25 15 27 38 5z"/>
<path d="M2378 3223 c7 -3 16 -2 19 1 4 3 -2 6 -13 5 -11 0 -14 -3 -6 -6z"/>
<path d="M2570 3220 c0 -5 5 -10 10 -10 6 0 10 5 10 10 0 6 -4 10 -10 10 -5 0
-10 -4 -10 -10z"/>
<path d="M2162 3198 c7 -20 48 -23 48 -4 0 11 -9 16 -26 16 -16 0 -24 -5 -22
-12z"/>
<path d="M2230 3195 c0 -13 23 -15 143 -15 121 0 144 2 144 15 0 13 -23 15
-144 15 -120 0 -143 -2 -143 -15z"/>
<path d="M2170 3160 c0 -5 9 -10 20 -10 11 0 20 5 20 10 0 6 -9 10 -20 10 -11
0 -20 -4 -20 -10z"/>
<path d="M2230 3156 c0 -16 40 -25 119 -28 45 -1 38 -3 -34 -8 -80 -6 -74 -6
60 -7 88 -1 140 2 125 7 -24 8 -24 8 -2 9 15 1 22 7 22 21 0 19 -7 20 -145 20
-116 0 -145 -3 -145 -14z m273 -3 c-7 -2 -19 -2 -25 0 -7 3 -2 5 12 5 14 0 19
-2 13 -5z m-45 -30 c-10 -2 -26 -2 -35 0 -10 3 -2 5 17 5 19 0 27 -2 18 -5z"/>
<path d="M2090 3150 c0 -5 5 -10 10 -10 6 0 10 5 10 10 0 6 -4 10 -10 10 -5 0
-10 -4 -10 -10z"/>
<path d="M2170 3125 c0 -13 4 -14 20 -5 11 6 20 13 20 15 0 3 -9 5 -20 5 -11
0 -20 -7 -20 -15z"/>
<path d="M2230 3085 c0 -13 23 -15 150 -15 129 0 149 2 144 15 -5 12 -31 15
-150 15 -121 0 -144 -2 -144 -15z"/>
<path d="M2227 3053 c-13 -13 -7 -23 16 -24 16 -1 18 -2 5 -6 -12 -3 -18 -14
-18 -35 0 -19 4 -28 13 -25 6 2 12 14 11 26 -1 28 14 27 18 -1 5 -33 25 -33
30 1 4 24 0 31 -16 34 -12 2 2 4 29 4 28 0 41 -3 29 -6 -19 -5 -22 -14 -14
-46 5 -18 -12 -95 -21 -95 -8 0 -14 39 -10 63 0 4 -3 7 -9 7 -5 0 -10 -3 -11
-7 0 -5 -2 -23 -3 -40 l-4 -33 98 0 98 0 -3 30 c-3 42 -15 51 -15 12 0 -22 -5
-32 -15 -32 -10 0 -15 11 -15 35 0 19 4 35 10 35 5 0 7 13 4 30 -4 19 -2 30 5
30 6 0 11 -12 11 -26 0 -31 16 -24 22 11 5 23 2 25 -33 25 -20 0 -39 -5 -41
-11 -2 -6 -13 -9 -23 -7 -42 10 38 29 102 25 58 -4 61 -3 50 15 -11 16 -27 18
-153 18 -77 0 -144 -3 -147 -7z m173 -129 c0 -32 -4 -44 -15 -44 -11 0 -15 11
-15 43 0 24 3 47 6 50 14 14 24 -6 24 -49z m-45 16 c3 -5 1 -10 -4 -10 -6 0
-11 5 -11 10 0 6 2 10 4 10 3 0 8 -4 11 -10z"/>
<path d="M2540 3046 c0 -9 13 -16 33 -19 l32 -4 -31 -1 c-28 -2 -30 -4 -26
-32 5 -33 22 -31 23 3 0 14 5 7 13 -18 9 -31 13 -36 19 -22 8 22 33 22 41 1 4
-9 9 -14 13 -10 3 3 -2 15 -12 26 -14 16 -21 18 -32 8 -12 -10 -14 -8 -11 12
4 31 48 42 48 13 0 -10 9 -24 19 -30 18 -11 20 -9 23 15 3 24 -1 28 -42 39
l-45 12 48 -2 c60 -3 61 8 1 17 -77 10 -114 8 -114 -8z"/>
<path d="M2498 2990 c2 -16 8 -30 13 -30 5 0 9 14 9 30 0 18 -5 30 -13 30 -9
0 -12 -10 -9 -30z"/>
<path d="M2236 2935 c-11 -30 -7 -65 9 -65 17 0 21 46 6 68 -7 11 -10 10 -15
-3z"/>
<path d="M2484 2931 c-2 -2 -4 -17 -4 -33 0 -24 4 -28 28 -27 15 0 21 3 15 6
-7 2 -13 14 -12 26 0 21 1 21 8 2 l8 -20 5 20 c5 16 6 14 7 -7 1 -24 5 -28 31
-28 25 0 30 4 29 23 -1 16 -2 18 -6 5 -7 -29 -33 -21 -33 10 0 24 -3 27 -36
27 -20 0 -38 -2 -40 -4z"/>
<path d="M2628 2873 c7 -3 16 -2 19 1 4 3 -2 6 -13 5 -11 0 -14 -3 -6 -6z"/>
<path d="M2398 2833 c7 -3 16 -2 19 1 4 3 -2 6 -13 5 -11 0 -14 -3 -6 -6z"/>
<path d="M980 3242 l0 -142 99 0 98 0 17 -92 c30 -161 103 -348 181 -463 l27
-39 -73 -67 -73 -66 94 -102 c52 -55 98 -101 102 -101 19 0 4 25 -45 78 -132
141 -128 128 -57 188 32 27 62 57 65 66 4 11 -10 45 -38 90 -80 131 -145 307
-162 438 -12 88 -12 89 -118 92 l-92 3 -3 120 c-4 174 -22 172 -22 -3z"/>
<path d="M1380 3110 c0 -6 78 -10 223 -10 l222 0 24 -77 24 -76 -39 -36 c-133
-120 -273 -255 -270 -259 7 -6 43 24 176 148 65 62 127 118 136 125 20 14 17
30 -18 125 l-24 65 -227 3 c-149 1 -227 -1 -227 -8z"/>
<path d="M2970 3110 c0 -6 79 -10 225 -10 124 0 225 -2 225 -4 0 -2 -7 -40
-15 -85 -25 -128 -82 -266 -159 -380 -34 -50 -40 -71 -18 -57 17 10 84 117
119 187 47 96 84 222 86 293 l2 61 -232 3 c-153 1 -233 -1 -233 -8z"/>
<path d="M3620 3110 c0 -6 27 -10 60 -10 33 0 60 4 60 10 0 6 -27 10 -60 10
-33 0 -60 -4 -60 -10z"/>
<path d="M2050 2743 c0 -8 119 -67 158 -78 l22 -6 0 -236 c0 -208 2 -234 15
-223 13 10 15 50 15 237 l0 224 -37 16 c-21 8 -64 28 -97 44 -60 30 -76 34
-76 22z"/>
<path d="M2647 2705 c-10 -7 -41 -19 -68 -25 -27 -7 -49 -16 -49 -21 0 -8 55
7 115 31 l30 12 152 -159 c84 -87 153 -163 153 -170 0 -6 -10 -19 -22 -27 -26
-19 -16 -21 15 -5 23 12 37 28 37 42 0 15 -314 337 -329 337 -9 0 -24 -7 -34
-15z"/>
<path d="M4264 2465 c-224 -49 -333 -244 -263 -471 17 -56 31 -77 78 -124 79
-80 140 -102 294 -108 163 -6 247 19 322 93 36 36 75 103 75 128 0 9 -36 23
-105 42 -58 15 -107 26 -108 24 -1 -2 -12 -25 -24 -50 -26 -56 -68 -79 -145
-79 -110 0 -152 55 -152 195 0 101 14 139 63 175 71 50 201 28 236 -40 9 -17
22 -30 28 -27 7 2 54 12 105 22 50 10 92 22 92 27 0 41 -77 130 -141 164 -79
41 -241 54 -355 29z"/>
<path d="M8840 2465 c-147 -33 -228 -144 -182 -248 35 -80 103 -115 321 -167
124 -29 157 -68 108 -126 -21 -24 -31 -27 -83 -28 -77 0 -117 21 -140 75 l-18
40 -111 -6 c-60 -4 -113 -10 -116 -14 -16 -15 23 -102 65 -143 62 -62 121 -80
278 -86 166 -5 245 16 319 85 56 52 73 95 67 168 -9 106 -75 155 -268 200
-183 43 -195 47 -198 73 -6 41 24 62 88 62 50 0 62 -4 89 -29 17 -16 31 -36
31 -45 0 -14 14 -15 108 -10 139 7 133 5 119 49 -17 58 -70 111 -135 135 -76
29 -249 36 -342 15z"/>
<path d="M5122 2453 c-5 -10 -47 -103 -92 -208 -46 -104 -93 -212 -105 -240
-56 -124 -95 -217 -95 -225 0 -6 52 -10 124 -10 l124 0 20 58 19 57 143 0 144
0 21 -55 21 -55 131 -3 132 -3 -61 138 c-33 76 -80 183 -103 238 -24 55 -65
150 -92 210 l-49 110 -136 3 c-123 2 -138 1 -146 -15z m187 -293 c23 -63 41
-118 41 -122 0 -9 -164 -11 -172 -3 -4 5 26 98 77 234 8 20 10 16 54 -109z"/>
<path d="M5790 2120 l0 -350 100 0 100 0 0 249 c0 138 4 252 8 255 5 3 42
-108 83 -247 l75 -252 95 0 94 0 75 252 c41 139 78 253 83 253 4 0 7 -115 7
-255 l0 -255 100 0 100 0 0 350 0 350 -165 0 -164 0 -22 -72 c-12 -40 -39
-131 -60 -201 -36 -124 -44 -145 -53 -136 -2 2 -31 94 -63 204 l-60 200 -166
3 -167 2 0 -350z"/>
<path d="M6878 2464 c-5 -4 -8 -162 -8 -351 l0 -344 126 3 126 3 1 125 2 125
125 6 c153 7 202 21 255 74 69 69 83 157 38 246 -24 46 -36 58 -87 84 l-60 30
-255 3 c-141 2 -259 0 -263 -4z m384 -144 c42 -12 58 -34 58 -79 0 -47 -46
-71 -132 -71 l-68 0 0 73 c0 41 3 77 7 80 10 11 93 8 135 -3z"/>
<path d="M7704 2456 c-3 -8 -4 -117 -2 -242 3 -216 4 -232 27 -282 31 -69 98
-127 170 -150 83 -25 327 -24 396 2 73 28 129 77 162 144 l28 57 0 240 0 240
-122 3 -123 3 0 -221 c0 -247 -6 -275 -62 -310 -26 -17 -45 -20 -96 -18 -55 4
-67 8 -95 36 l-32 32 -3 240 -3 240 -120 0 c-93 0 -121 -3 -125 -14z"/>
<path d="M1574 2298 c-4 -7 -3 -8 4 -4 6 4 36 -13 66 -38 124 -100 278 -175
460 -221 l130 -33 -1 -86 -1 -86 32 -1 c31 -1 226 0 236 1 3 0 -2 5 -10 10 -8
5 -63 10 -122 10 l-108 0 0 73 c0 43 -5 80 -12 90 -8 10 -43 22 -88 31 -164
32 -319 100 -467 207 -82 59 -106 69 -119 47z"/>
<path d="M3100 2235 c-11 -13 -10 -14 4 -9 13 5 34 -9 77 -52 60 -59 88 -68
50 -16 -27 39 -88 92 -105 92 -8 0 -19 -7 -26 -15z"/>
<path d="M2835 2096 c-49 -19 -133 -41 -185 -51 -116 -21 -136 -28 -93 -33 38
-4 239 48 300 78 23 11 46 20 52 20 5 0 13 5 16 10 3 6 5 10 3 9 -2 0 -43 -15
-93 -33z"/>
<path d="M3355 2071 c3 -11 1 -22 -5 -26 -20 -12 -11 -54 15 -71 25 -16 27
-16 45 4 19 20 19 21 -17 66 -39 50 -48 56 -38 27z m33 -43 c16 -16 15 -48 -2
-48 -20 0 -39 27 -32 45 7 18 18 19 34 3z"/>
<path d="M1375 2030 c-14 -27 -25 -52 -25 -55 0 -13 27 -2 52 22 35 34 41 28
18 -19 -26 -53 -7 -58 42 -12 26 25 42 34 45 27 5 -15 23 -17 23 -4 0 23 -42
22 -66 0 -26 -24 -31 -15 -12 26 16 35 5 41 -30 16 -41 -29 -45 -27 -21 14 12
19 16 35 10 35 -6 0 -22 -22 -36 -50z"/>
<path d="M3281 2014 c11 -14 10 -19 -8 -33 l-21 -17 29 -35 c31 -37 39 -33 13
6 -11 16 -13 29 -6 40 8 15 12 12 36 -15 15 -18 29 -30 33 -27 7 8 -66 97 -79
97 -6 0 -4 -7 3 -16z"/>
<path d="M1473 1938 c-12 -18 -20 -34 -17 -37 5 -6 53 49 54 62 0 16 -16 5
-37 -25z"/>
<path d="M1523 1943 c-16 -6 -17 -35 -1 -51 6 -6 8 -15 4 -19 -4 -5 -14 1 -22
11 -12 17 -14 17 -14 3 0 -24 35 -40 50 -22 9 10 9 19 0 35 -6 12 -8 25 -4 28
4 4 9 1 11 -5 5 -15 23 -17 23 -3 0 13 -32 28 -47 23z"/>
<path d="M3140 1930 c0 -6 7 -24 15 -40 19 -37 10 -38 -27 -3 -33 32 -44 25
-29 -18 15 -43 7 -47 -23 -13 -13 16 -27 27 -30 24 -8 -8 74 -101 84 -95 5 3
2 24 -6 47 -19 56 -19 56 21 18 19 -18 37 -31 41 -27 8 7 -24 105 -37 112 -5
4 -9 1 -9 -5z"/>
<path d="M3195 1930 c-11 -18 4 -59 26 -71 32 -17 56 11 43 48 -10 30 -56 45
-69 23z m55 -41 c0 -24 -12 -24 -33 -1 -13 14 -14 21 -5 30 15 15 38 -3 38
-29z"/>
<path d="M1646 1895 c-5 -13 -9 -13 -26 -3 -19 11 -24 10 -41 -11 -10 -13 -19
-29 -19 -36 0 -15 47 -48 53 -37 2 4 16 28 32 55 15 26 22 47 17 47 -5 0 -12
-7 -16 -15z m-28 -41 c-5 -26 -38 -31 -38 -7 0 24 21 46 33 34 5 -5 7 -17 5
-27z"/>
<path d="M1657 1842 c-23 -26 -21 -59 3 -67 37 -12 74 41 50 70 -17 20 -33 19
-53 -3z m43 -21 c0 -24 -15 -35 -36 -27 -12 4 -13 10 -4 26 14 26 40 26 40 1z"/>
<path d="M1726 1793 c-18 -38 -19 -43 -8 -43 4 0 13 14 19 30 6 17 16 30 22
30 14 0 14 -35 1 -61 -6 -11 -7 -19 -1 -19 5 0 14 14 20 30 5 17 17 30 27 30
11 0 14 -5 9 -17 -4 -10 -9 -29 -12 -43 l-4 -25 15 25 c22 36 20 70 -3 70 -11
0 -22 4 -25 9 -3 5 -14 11 -25 14 -14 3 -23 -4 -35 -30z"/>
<path d="M2974 1805 c-16 -41 23 -88 52 -64 21 17 17 31 -6 17 -10 -7 -23 -9
-27 -5 -7 8 8 22 32 30 14 5 -14 37 -32 37 -7 0 -16 -7 -19 -15z m27 -18 c-13
-13 -26 -3 -16 12 3 6 11 8 17 5 6 -4 6 -10 -1 -17z"/>
<path d="M2876 1790 c10 -38 32 -90 39 -90 3 0 2 18 -1 40 -9 52 11 54 33 3 9
-21 18 -33 20 -26 2 6 -3 26 -12 43 -13 25 -21 31 -38 26 -13 -3 -26 1 -34 12
-13 15 -13 14 -7 -8z"/>
<path d="M2830 1777 c0 -21 39 -97 50 -97 14 0 13 7 -6 35 -9 13 -13 29 -9 35
3 5 0 17 -9 25 -18 18 -26 19 -26 2z"/>
<path d="M2750 1763 c0 -21 23 -90 34 -100 4 -4 4 13 0 37 -5 25 -8 53 -8 63
0 9 -6 17 -13 17 -7 0 -13 -8 -13 -17z"/>
<path d="M1890 1744 c-6 -16 -13 -34 -15 -41 -2 -7 0 -15 4 -17 9 -6 35 73 27
81 -3 3 -10 -7 -16 -23z"/>
<path d="M1925 1739 c-4 -6 3 -21 16 -35 16 -17 19 -24 8 -24 -8 0 -20 5 -27
12 -8 8 -12 8 -12 1 0 -17 28 -36 45 -29 19 7 20 45 0 52 -23 9 -18 26 5 19
11 -4 20 -2 20 4 0 14 -47 14 -55 0z"/>
<path d="M2053 1738 c-15 -17 -21 -90 -8 -95 6 -1 11 11 11 28 1 17 6 34 11
38 6 3 7 14 4 24 -6 16 -9 16 -18 5z"/>
<path d="M2092 1697 c-8 -32 -11 -61 -8 -64 6 -6 13 10 18 42 2 11 12 21 22
23 16 3 17 -1 12 -40 -5 -33 -4 -39 4 -25 17 27 9 83 -12 79 -11 -2 -18 5 -20
20 -2 15 -8 2 -16 -35z"/>
<path d="M2298 1724 c-5 -4 -8 -31 -8 -60 0 -38 4 -53 16 -58 24 -9 54 -7 54
4 0 6 -11 10 -25 10 -22 0 -24 4 -27 56 -2 31 -6 52 -10 48z"/>
<path d="M2370 1720 c0 -5 5 -10 10 -10 6 0 10 5 10 10 0 6 -4 10 -10 10 -5 0
-10 -4 -10 -10z"/>
<path d="M2506 1673 c8 -68 14 -81 14 -30 0 33 14 56 27 44 3 -4 9 -21 14 -39
8 -33 8 -33 6 7 -2 33 -6 41 -24 43 -13 2 -23 10 -23 18 0 8 -5 14 -11 14 -7
0 -8 -19 -3 -57z"/>
<path d="M2586 1713 c-4 -9 -2 -21 4 -27 5 -5 10 -20 10 -32 0 -24 16 -41 28
-29 3 3 1 10 -7 14 -7 5 -12 21 -11 37 3 42 1 54 -9 54 -5 0 -12 -8 -15 -17z"/>
<path d="M2680 1711 c-15 -30 4 -73 31 -69 32 5 45 31 31 62 -14 31 -47 34
-62 7z m46 -16 c4 -8 3 -22 0 -31 -5 -13 -9 -14 -21 -4 -8 7 -15 21 -15 31 0
23 28 25 36 4z"/>
<path d="M2170 1676 c-5 -14 -7 -32 -4 -40 7 -17 32 -28 45 -20 14 9 10 24 -5
18 -8 -3 -17 -1 -21 5 -4 7 4 11 20 11 22 0 26 4 23 23 -5 33 -45 36 -58 3z
m41 1 c-1 -12 -15 -9 -19 4 -3 6 1 10 8 8 6 -3 11 -8 11 -12z"/>
<path d="M2419 1678 c-15 -28 4 -68 32 -68 12 0 19 -5 16 -12 -2 -7 -15 -12
-28 -10 -17 2 -21 0 -12 -9 6 -6 19 -9 29 -7 16 3 20 14 22 63 3 58 2 60 -23
61 -16 1 -29 -5 -36 -18z m46 -28 c0 -36 -29 -33 -33 3 -3 23 0 28 15 25 12
-2 18 -12 18 -28z"/>
<path d="M2383 1645 c0 -27 2 -38 4 -22 2 15 2 37 0 50 -2 12 -4 0 -4 -28z"/>
<path d="M1343 1375 c-46 -32 -32 -77 37 -116 21 -12 42 -29 45 -37 7 -19 -11
-40 -38 -45 -22 -4 -22 -4 -1 -6 31 -2 74 36 74 64 0 23 -29 50 -85 81 -29 16
-31 48 -3 62 15 7 17 11 8 11 -9 1 -25 -6 -37 -14z"/>
<path d="M7214 1367 c-39 -34 -28 -67 36 -106 34 -21 50 -38 50 -51 0 -43 -70
-37 -94 8 l-15 27 -1 -35 c0 -35 0 -35 47 -37 109 -5 135 82 39 129 -63 30
-71 59 -22 78 16 7 17 9 4 9 -9 1 -29 -9 -44 -22z"/>
<path d="M7930 1373 c-42 -21 -74 -79 -64 -117 17 -67 96 -103 161 -72 20 9
33 19 31 22 -3 2 -18 -2 -34 -11 -39 -20 -51 -19 -79 10 -20 19 -25 34 -25 73
0 63 23 95 70 95 22 0 39 -7 52 -22 l18 -23 0 24 c0 16 -6 24 -17 25 -10 0
-31 4 -48 7 -20 5 -42 1 -65 -11z"/>
<path d="M1423 1356 c17 -20 23 -22 25 -10 4 18 3 20 -25 28 l-23 7 23 -25z"/>
<path d="M1508 1280 c3 -98 4 -100 28 -100 22 0 24 4 24 45 0 25 4 45 8 45 5
0 23 -20 41 -45 23 -33 39 -45 57 -45 28 0 27 3 -14 58 l-25 33 21 15 c28 20
30 69 3 84 -11 5 -48 10 -83 10 l-63 0 3 -100z m110 51 c4 -35 -9 -51 -40 -51
-15 0 -18 9 -18 46 0 44 1 45 28 42 23 -3 28 -8 30 -37z"/>
<path d="M1738 1280 l3 -100 27 0 27 0 0 100 0 100 -30 0 -30 0 3 -100z"/>
<path d="M1945 1280 l0 -100 76 0 c71 0 77 2 83 23 10 37 6 43 -10 14 -13 -25
-20 -28 -57 -25 l-42 3 0 93 c0 92 0 92 -25 92 -25 0 -25 0 -25 -100z"/>
<path d="M2188 1280 c-33 -71 -42 -100 -32 -100 8 0 14 7 14 15 0 8 4 23 9 33
5 9 15 33 24 52 l15 35 26 -58 c14 -32 26 -62 26 -67 0 -6 13 -10 30 -10 l29
0 -18 43 c-45 103 -70 157 -73 157 -2 0 -25 -45 -50 -100z"/>
<path d="M2378 1371 c10 -6 13 -32 10 -100 -2 -56 1 -91 7 -91 6 0 9 22 7 53
-2 30 -2 66 0 82 3 26 6 23 68 -54 36 -44 68 -81 72 -81 4 0 8 45 10 100 2 66
-1 100 -8 100 -6 0 -9 -22 -6 -62 5 -73 0 -72 -65 13 -32 43 -42 49 -73 49
-23 0 -30 -3 -22 -9z"/>
<path d="M2618 1280 l3 -100 27 0 c26 0 27 2 24 45 -2 25 0 45 4 45 12 0 64
-66 64 -79 0 -6 19 -11 42 -11 35 0 39 2 27 13 -19 15 -89 102 -89 110 0 3 21
22 46 42 45 33 46 35 20 35 -15 0 -25 -4 -21 -9 5 -9 -74 -81 -90 -81 -4 0 -5
20 -3 45 3 44 3 45 -27 45 l-30 0 3 -100z"/>
<path d="M2898 1280 c-33 -71 -42 -100 -32 -100 8 0 14 8 14 18 0 10 11 40 24
67 l23 49 17 -32 c9 -17 17 -35 18 -39 9 -44 24 -63 50 -63 24 0 27 2 19 23
-16 39 -80 177 -83 177 -2 0 -24 -45 -50 -100z"/>
<path d="M3155 1280 l0 -100 30 0 30 0 0 100 0 100 -30 0 -30 0 0 -100z"/>
<path d="M3282 1359 c7 -12 27 -35 43 -53 17 -17 49 -53 72 -81 l42 -50 0 60
c0 35 -3 52 -8 42 -6 -16 -15 -9 -55 42 -39 50 -53 61 -77 61 -27 0 -28 -2
-17 -21z"/>
<path d="M3428 1339 c5 -47 7 -47 15 4 4 25 2 37 -6 37 -9 0 -11 -13 -9 -41z"/>
<path d="M3490 1358 c1 -21 2 -22 14 -5 7 9 23 17 35 17 22 0 22 -3 19 -95
l-3 -95 30 0 30 0 -3 95 -3 95 25 0 c14 0 30 -8 35 -17 9 -16 10 -16 11 5 0
21 -3 22 -95 22 -92 0 -95 -1 -95 -22z"/>
<path d="M3725 1280 l0 -100 78 0 c42 0 77 4 77 9 0 5 3 18 6 28 6 15 3 14
-15 -4 -14 -15 -34 -23 -56 -23 -34 0 -35 1 -35 40 0 43 20 55 39 23 8 -14 10
-8 10 27 0 35 -2 41 -10 28 -19 -33 -39 -21 -39 22 0 39 1 40 35 40 22 0 38
-6 44 -17 9 -16 10 -16 11 5 0 21 -4 22 -72 22 l-73 0 0 -100z"/>
<path d="M3938 1280 l3 -100 27 0 c26 0 27 2 24 45 -2 25 0 45 5 45 5 0 24
-20 42 -45 23 -33 39 -45 57 -45 28 0 27 3 -14 58 l-25 33 21 15 c28 20 30 69
3 84 -11 5 -48 10 -83 10 l-63 0 3 -100z m110 51 c4 -35 -9 -51 -40 -51 -15 0
-18 9 -18 46 0 44 1 45 28 42 23 -3 28 -8 30 -37z"/>
<path d="M4165 1280 c0 -60 4 -100 10 -100 6 0 9 32 7 82 l-2 83 35 -40 c19
-22 50 -59 68 -82 17 -23 35 -43 39 -43 4 0 8 45 10 100 2 63 -1 100 -7 100
-6 0 -9 -19 -7 -44 7 -83 1 -86 -52 -18 -38 48 -55 62 -75 62 l-26 0 0 -100z"/>
<path d="M4434 1281 c-42 -84 -47 -101 -32 -101 11 0 15 5 11 15 -3 9 3 25 12
35 10 11 15 20 11 20 -3 0 1 15 10 33 l17 32 27 -60 c15 -33 25 -63 23 -67 -2
-5 12 -8 31 -8 l35 0 -27 58 c-16 31 -37 77 -48 101 l-20 43 -50 -101z"/>
<path d="M4590 1363 c0 -13 3 -14 12 -5 7 7 20 12 30 12 18 0 23 -38 20 -162
-1 -24 3 -28 26 -28 l27 0 -3 95 -3 95 25 0 c14 0 30 -8 35 -17 9 -16 10 -16
11 5 0 21 -3 22 -90 22 -78 0 -90 -2 -90 -17z"/>
<path d="M4822 1280 l-1 -100 27 0 27 0 0 100 0 100 -26 0 -26 0 -1 -100z"/>
<path d="M4956 1354 c-20 -21 -26 -36 -26 -71 0 -55 12 -78 50 -98 113 -59
222 80 132 170 -13 14 -33 25 -43 25 -18 0 -18 -1 1 -20 26 -26 28 -124 4
-158 -21 -31 -64 -26 -82 8 -19 37 -11 139 13 156 18 14 18 14 -2 14 -11 0
-32 -12 -47 -26z"/>
<path d="M5192 1359 c7 -12 27 -35 43 -53 17 -17 49 -53 72 -81 l42 -50 1 43
c0 23 -4 42 -9 42 -4 0 -29 27 -55 60 -39 49 -53 60 -77 60 -27 0 -28 -2 -17
-21z"/>
<path d="M5335 1370 c4 -6 11 -8 16 -5 14 9 11 15 -7 15 -8 0 -12 -5 -9 -10z"/>
<path d="M5457 1280 c-34 -75 -42 -100 -31 -100 8 0 13 4 9 10 -3 5 4 26 15
47 11 21 20 43 20 50 0 25 21 23 31 -4 31 -84 44 -102 71 -103 l27 0 -43 95
c-24 53 -45 98 -48 100 -2 3 -25 -40 -51 -95z"/>
<path d="M5655 1280 l0 -101 80 3 c77 3 80 4 83 28 l2 25 -16 -22 c-12 -17
-26 -23 -55 -23 l-39 0 0 95 0 95 -27 0 -28 0 0 -100z"/>
<path d="M5928 1280 l3 -100 60 0 c33 0 69 5 80 10 26 15 26 66 -1 80 -21 11
-21 11 -1 36 37 47 5 74 -86 74 l-58 0 3 -100z m102 70 c14 -26 -3 -60 -30
-60 -17 0 -20 7 -20 40 0 33 3 40 20 40 10 0 24 -9 30 -20z m-1 -84 c7 -8 11
-27 9 -43 -2 -22 -9 -29 -30 -31 -27 -3 -28 -2 -28 42 0 38 3 46 19 46 10 0
24 -6 30 -14z"/>
<path d="M6140 1308 c0 -40 6 -84 13 -98 21 -41 80 -51 127 -20 18 11 32 190
15 190 -6 0 -9 -33 -7 -84 3 -81 2 -85 -22 -101 -24 -16 -28 -16 -52 0 -24 16
-25 20 -22 101 l3 84 -27 0 c-28 0 -28 0 -28 -72z"/>
<path d="M6375 1280 l0 -100 53 0 c88 0 121 28 121 100 0 72 -33 100 -121 100
l-53 0 0 -100z m109 68 c9 -12 16 -43 16 -68 0 -55 -22 -90 -56 -90 -24 0 -24
1 -24 90 0 89 0 90 24 90 14 0 32 -10 40 -22z"/>
<path d="M6601 1280 l2 -100 58 0 c97 0 145 60 112 141 -17 44 -47 59 -119 59
l-55 0 2 -100z m113 68 c9 -12 16 -43 16 -68 0 -55 -22 -90 -56 -90 -24 0 -24
1 -24 90 0 89 0 90 24 90 14 0 32 -10 40 -22z"/>
<path d="M6835 1280 l0 -100 28 0 c26 0 27 2 27 50 l0 50 35 0 35 0 0 -50 c0
-48 1 -50 28 -50 l27 0 0 100 0 100 -27 0 c-26 0 -28 -3 -28 -45 0 -45 0 -45
-35 -45 -35 0 -35 0 -35 45 0 42 -2 45 -27 45 l-28 0 0 -100z"/>
<path d="M7085 1280 c0 -100 0 -100 25 -100 l25 0 0 100 c0 100 0 100 -25 100
l-25 0 0 -100z"/>
<path d="M7296 1357 c10 -12 20 -24 21 -26 2 -2 3 7 3 20 0 18 -6 25 -21 26
-21 2 -21 1 -3 -20z"/>
<path d="M7360 1358 c1 -21 2 -22 14 -5 7 9 23 17 35 17 20 0 21 -5 21 -95 l0
-95 28 0 27 0 -3 95 -3 95 25 0 c14 0 30 -8 35 -17 9 -16 10 -16 11 5 0 21 -3
22 -95 22 -92 0 -95 -1 -95 -22z"/>
<path d="M7730 1378 c0 -3 -20 -49 -45 -102 -34 -73 -41 -96 -29 -96 8 0 12 5
9 10 -4 6 0 22 9 35 9 13 16 30 16 38 0 7 6 22 14 32 14 19 15 19 27 -10 43
-103 43 -104 71 -105 l27 0 -43 95 c-40 87 -56 118 -56 103z"/>
<path d="M8148 1280 c-33 -71 -42 -100 -32 -100 8 0 14 10 14 25 0 14 5 25 10
25 6 0 10 8 10 18 1 9 7 28 14 41 l14 25 16 -32 c9 -18 17 -35 18 -39 9 -44
25 -63 50 -63 l27 0 -41 93 c-22 50 -43 95 -47 99 -4 5 -28 -37 -53 -92z"/>
<path d="M8345 1280 l0 -100 60 0 c71 0 99 15 115 65 16 48 -2 100 -40 120
-16 8 -53 15 -82 15 l-53 0 0 -100z m109 68 c18 -26 21 -109 6 -139 -6 -11
-21 -19 -35 -19 -25 0 -25 1 -25 90 0 82 2 90 19 90 11 0 27 -10 35 -22z"/>
<path d="M8575 1280 l0 -100 76 0 c76 0 77 0 82 28 l5 27 -15 -22 c-12 -17
-25 -23 -54 -23 -39 0 -39 0 -39 40 0 43 20 55 39 23 8 -14 10 -8 10 27 0 35
-2 41 -10 28 -19 -33 -39 -21 -39 22 0 39 1 40 35 40 22 0 38 -6 44 -17 9 -16
10 -16 11 5 0 21 -4 22 -72 22 l-73 0 0 -100z"/>
<path d="M8785 1280 c0 -60 4 -100 10 -100 6 0 9 33 7 86 -2 47 0 84 5 81 5
-3 24 -42 43 -87 l34 -81 24 47 c13 25 21 49 18 52 -3 3 -6 0 -6 -6 0 -30 -23
-6 -47 48 -23 55 -28 60 -57 60 l-31 0 0 -100z"/>
<path d="M8952 1353 c-22 -61 -22 -67 -3 -33 l20 35 1 -87 0 -88 28 0 27 0 0
100 0 100 -32 0 c-25 0 -33 -5 -41 -27z"/>
<path d="M9115 1314 c28 -49 36 -74 33 -100 -4 -32 -2 -34 24 -34 27 0 28 2
28 45 0 35 8 59 35 100 25 40 31 55 20 55 -8 0 -15 -6 -15 -14 0 -18 -39 -86
-49 -86 -4 0 -19 22 -32 50 -20 42 -28 49 -52 50 l-29 0 37 -66z"/>
<path d="M5200 1255 c-6 -70 -5 -83 5 -73 3 3 5 37 3 74 l-3 69 -5 -70z"/>
<path d="M1313 1200 c-1 -15 4 -20 24 -20 25 0 26 0 8 20 -10 11 -21 20 -24
20 -4 0 -7 -9 -8 -20z"/>
<path d="M3280 1190 c0 -5 5 -10 10 -10 6 0 10 5 10 10 0 6 -4 10 -10 10 -5 0
-10 -4 -10 -10z"/>
<path d="M2281 1000 c-17 -10 -7 -40 14 -40 8 0 15 9 15 19 0 24 -12 32 -29
21z"/>
<path d="M4041 1001 c-15 -10 -8 -41 9 -41 15 0 25 29 14 40 -5 5 -15 5 -23 1z"/>
<path d="M5321 996 c-14 -17 -7 -36 14 -36 22 0 29 20 13 36 -13 13 -16 13
-27 0z"/>
<path d="M6240 990 c0 -11 6 -20 14 -20 24 0 28 18 6 30 -17 9 -20 8 -20 -10z"/>
<path d="M6376 986 c-15 -14 -26 -32 -26 -41 0 -20 35 -54 79 -77 44 -24 41
-62 -5 -66 -25 -2 -37 3 -53 24 l-21 27 0 -29 c0 -29 1 -29 56 -29 49 0 59 3
76 26 16 21 17 29 7 52 -6 14 -24 31 -39 37 -32 13 -70 46 -70 60 0 5 10 14
21 21 18 9 27 7 50 -10 27 -20 29 -21 29 -3 0 10 -6 19 -12 19 -7 0 -25 4 -40
8 -21 5 -32 2 -52 -19z"/>
<path d="M6683 994 c-7 -19 11 -39 26 -30 16 10 13 33 -4 40 -9 3 -18 -1 -22
-10z"/>
<path d="M1343 977 c-33 -36 -43 -63 -43 -114 0 -53 25 -104 60 -123 21 -11
21 -11 -1 19 -31 42 -34 162 -6 205 23 35 17 43 -10 13z"/>
<path d="M1400 978 c0 -20 1 -20 18 -5 10 10 26 17 36 17 16 0 17 -10 14 -100
l-3 -100 30 0 30 0 -3 100 c-3 90 -2 100 14 100 10 0 26 -7 36 -17 17 -15 18
-15 18 5 0 21 -4 22 -95 22 -91 0 -95 -1 -95 -22z"/>
<path d="M1625 895 l0 -105 25 0 c24 0 25 2 23 63 -1 34 -2 81 -2 105 -1 37
-4 42 -23 42 -22 0 -23 -3 -23 -105z"/>
<path d="M2035 895 l0 -105 25 0 25 0 0 105 0 105 -25 0 -25 0 0 -105z"/>
<path d="M2158 959 c3 -28 0 -44 -9 -50 -12 -8 -12 -10 0 -18 9 -6 12 -23 10
-55 -4 -45 -4 -46 26 -46 l30 0 0 105 0 105 -30 0 c-30 0 -30 -1 -27 -41z"/>
<path d="M2520 895 c0 -105 0 -105 25 -105 23 0 24 4 27 62 2 38 8 63 16 66 9
3 12 -14 12 -62 0 -65 1 -66 26 -66 26 0 26 0 22 66 -4 72 -16 87 -60 78 -26
-5 -28 -4 -28 30 0 29 -4 36 -20 36 -19 0 -20 -7 -20 -105z"/>
<path d="M3065 895 l0 -105 78 0 c76 0 77 0 77 25 l0 25 -20 -20 c-22 -22 -79
-27 -81 -7 -1 6 -2 25 -3 40 -4 35 10 44 35 21 18 -17 19 -16 19 19 0 41 -6
46 -26 20 -18 -23 -31 -6 -30 40 1 28 4 32 33 35 23 2 35 -3 47 -20 l16 -22 0
27 c0 27 0 27 -72 27 l-73 0 0 -105z"/>
<path d="M3348 965 c4 -34 3 -36 -21 -30 -56 14 -94 -87 -49 -128 21 -19 48
-22 58 -6 5 8 9 8 14 -1 4 -7 16 -9 26 -6 17 5 19 15 16 106 -3 96 -4 100 -26
100 -19 0 -21 -4 -18 -35z m2 -100 c0 -47 -19 -72 -38 -53 -16 16 -16 105 1
111 22 8 37 -15 37 -58z"/>
<path d="M4615 895 c0 -104 0 -105 24 -105 17 0 22 4 17 16 -3 9 -6 56 -6 105
0 78 -2 89 -17 89 -16 0 -18 -12 -18 -105z"/>
<path d="M4790 895 l0 -105 28 0 27 0 0 105 0 105 -27 0 -28 0 0 -105z"/>
<path d="M6181 960 c-10 -22 -15 -40 -10 -40 5 0 9 -29 9 -65 0 -61 1 -65 23
-65 21 0 22 3 19 65 -3 48 0 65 9 65 10 0 10 3 1 12 -7 7 -12 25 -12 40 0 40
-16 35 -39 -12z"/>
<path d="M6855 895 l0 -105 43 0 c98 0 157 61 132 136 -17 52 -53 74 -119 74
l-56 0 0 -105z m109 73 c21 -30 21 -117 0 -146 -10 -15 -24 -22 -37 -20 -20 3
-22 10 -25 82 -2 44 -1 85 2 93 8 20 43 15 60 -9z"/>
<path d="M7235 895 c0 -102 1 -105 23 -105 21 0 22 3 22 105 0 102 -1 105 -22
105 -22 0 -23 -3 -23 -105z"/>
<path d="M7568 965 c4 -35 3 -36 -22 -29 -52 13 -91 -57 -64 -113 11 -24 20
-28 58 -29 78 -3 75 -6 72 106 -3 96 -4 100 -26 100 -19 0 -21 -4 -18 -35z m0
-96 c2 -29 -2 -50 -10 -57 -28 -23 -42 7 -39 81 1 23 5 28 24 25 19 -3 22 -10
25 -49z"/>
<path d="M7905 895 c0 -63 4 -105 10 -105 6 0 9 35 7 92 -2 58 0 89 6 83 5 -5
24 -45 42 -87 18 -42 37 -75 41 -73 11 8 29 65 20 65 -5 0 -21 29 -36 65 -26
60 -30 65 -59 65 l-31 0 0 -105z"/>
<path d="M8077 983 c-2 -10 -8 -27 -12 -38 -4 -14 -2 -12 9 5 15 24 16 20 14
-68 l-3 -92 30 0 30 0 0 105 0 105 -31 0 c-22 0 -33 -6 -37 -17z"/>
<path d="M8360 895 c0 -102 1 -105 23 -105 22 0 22 2 19 105 -3 96 -5 105 -23
105 -18 0 -19 -8 -19 -105z"/>
<path d="M8452 983 c2 -10 10 -18 18 -18 8 0 16 8 18 18 2 12 -3 17 -18 17
-15 0 -20 -5 -18 -17z"/>
<path d="M9240 994 c0 -6 4 -14 10 -20 33 -33 28 -187 -8 -227 -17 -20 -17
-20 12 -2 52 34 71 120 42 188 -13 32 -56 78 -56 61z"/>
<path d="M3936 953 c-15 -20 -19 -40 -17 -77 3 -61 15 -86 41 -86 24 0 35 16
15 24 -11 4 -15 20 -15 56 0 45 2 50 22 50 12 0 18 3 14 8 -4 4 -13 7 -19 7
-7 0 -12 10 -11 23 1 29 -7 27 -30 -5z"/>
<path d="M5225 960 c-16 -18 -19 -33 -17 -84 4 -67 20 -93 49 -81 12 5 14 9 6
12 -20 7 -17 113 2 113 8 0 15 5 15 10 0 6 -6 10 -14 10 -8 0 -16 10 -18 21
l-3 21 -20 -22z"/>
<path d="M5416 953 c-15 -20 -19 -40 -17 -77 3 -61 15 -86 41 -86 22 0 36 16
18 22 -7 3 -13 24 -14 52 -1 40 2 49 20 56 20 9 19 11 -6 14 -7 1 -12 12 -11
24 4 29 -8 27 -31 -5z"/>
<path d="M5697 952 c-18 -19 -25 -32 -18 -36 6 -4 11 -31 11 -61 0 -46 3 -55
21 -60 12 -4 26 -2 32 4 8 8 8 11 -1 11 -8 0 -12 19 -12 55 0 46 3 55 18 55
16 1 16 2 1 13 -9 7 -18 21 -20 30 -3 16 -8 14 -32 -11z"/>
<path d="M1692 931 c-11 -6 -10 -10 3 -15 14 -5 17 -16 13 -66 -4 -59 -4 -60
21 -60 26 0 26 1 23 62 -5 80 -22 103 -60 79z"/>
<path d="M1813 914 c-21 -21 -24 -32 -19 -62 3 -20 13 -43 23 -49 23 -17 58
-16 72 1 10 12 8 13 -10 9 -15 -4 -26 0 -35 12 -24 33 -17 45 26 45 46 0 53
17 20 50 -27 27 -46 25 -77 -6z m59 -9 c4 -21 1 -25 -18 -25 -25 0 -28 7 -18
34 9 24 31 19 36 -9z"/>
<path d="M2373 925 c-27 -19 -30 -47 -7 -69 24 -24 29 -20 29 26 0 32 4 43 17
46 22 4 34 -38 18 -67 -8 -16 -8 -21 3 -21 21 0 37 22 37 51 0 15 6 30 13 32
6 3 2 6 -9 6 -12 1 -34 3 -50 7 -18 3 -37 -1 -51 -11z"/>
<path d="M2710 920 c-13 -13 -20 -33 -20 -58 0 -62 50 -92 96 -57 18 14 18 14
-4 8 -26 -6 -52 12 -52 38 0 15 8 19 40 19 33 0 38 3 33 18 -18 52 -59 66 -93
32z m54 -6 c10 -26 7 -34 -14 -34 -13 0 -20 7 -20 18 0 33 23 44 34 16z"/>
<path d="M2910 930 c-13 -9 -13 -11 0 -20 19 -12 35 -8 35 10 0 18 -16 22 -35
10z"/>
<path d="M3460 933 c-12 -3 -14 -16 -10 -71 l5 -67 60 -2 60 -2 -5 70 c-3 38
-8 69 -12 69 -5 0 -12 0 -18 0 -5 0 -10 -26 -12 -57 -2 -46 -7 -59 -20 -61
-16 -3 -18 5 -18 57 0 61 -4 70 -30 64z"/>
<path d="M3635 915 c-31 -30 -33 -77 -5 -105 23 -23 62 -26 79 -6 10 12 9 13
-8 9 -26 -7 -53 36 -49 78 4 38 27 51 35 20 6 -23 33 -29 33 -8 0 40 -50 48
-85 12z"/>
<path d="M3813 929 c27 -16 21 -47 -13 -64 -39 -20 -55 -49 -34 -65 11 -10 21
-10 39 -2 16 8 26 8 31 1 3 -6 13 -9 22 -7 13 2 15 15 13 63 -3 69 -13 85 -50
85 -22 -1 -24 -2 -8 -11z m13 -105 c-7 -18 -22 -18 -30 1 -3 8 3 22 12 31 16
17 17 17 20 0 2 -9 1 -24 -2 -32z"/>
<path d="M4130 920 c-26 -26 -27 -90 -2 -113 19 -18 59 -22 78 -9 16 11 34 48
34 72 0 27 -43 70 -70 70 -11 0 -29 -9 -40 -20z m58 -2 c14 -14 16 -86 3 -107
-5 -8 -16 -11 -25 -8 -12 5 -16 20 -16 60 0 66 11 82 38 55z"/>
<path d="M4278 864 c-3 -73 -3 -74 22 -74 24 0 25 2 25 62 0 52 3 63 18 66 15
3 17 -5 17 -62 0 -62 1 -66 23 -66 22 0 23 3 19 63 -5 73 -20 96 -54 80 -13
-6 -32 -7 -45 -2 -21 7 -22 5 -25 -67z"/>
<path d="M4473 928 c-28 -13 -32 -51 -6 -46 10 2 18 12 18 23 0 11 7 20 15 20
11 0 16 -14 17 -52 2 -29 -2 -55 -7 -58 -16 -10 -24 23 -10 40 16 20 0 19 -28
-1 -42 -29 -19 -79 27 -55 13 7 22 8 26 1 3 -5 14 -10 24 -10 15 0 17 8 13 63
-5 82 -31 103 -89 75z"/>
<path d="M4915 932 c-5 -4 -10 -37 -10 -75 0 -62 1 -67 22 -67 20 0 22 6 25
62 2 50 6 63 21 66 15 3 17 -5 17 -62 0 -62 1 -66 23 -66 22 0 23 3 19 63 -5
75 -20 96 -56 79 -16 -7 -28 -8 -31 -2 -7 12 -16 12 -30 2z"/>
<path d="M5086 924 c-24 -23 -19 -40 19 -71 19 -15 35 -34 35 -40 0 -18 -30
-16 -51 3 -16 15 -17 14 -13 -3 8 -28 69 -31 83 -4 17 30 14 38 -24 72 -19 18
-32 36 -29 40 8 13 21 11 38 -7 14 -13 16 -13 16 -1 0 8 -10 17 -22 21 -32 8
-35 8 -52 -10z"/>
<path d="M5523 933 c-9 -3 -13 -25 -13 -63 0 -34 5 -61 13 -67 6 -6 36 -10 65
-10 43 -1 52 2 48 14 -3 8 -6 39 -6 69 0 47 -3 54 -20 54 -16 0 -19 -8 -22
-57 -2 -46 -7 -59 -20 -61 -16 -3 -18 5 -18 57 0 61 -5 72 -27 64z"/>
<path d="M5805 915 c-31 -30 -33 -77 -5 -105 23 -23 62 -26 79 -6 10 12 8 13
-10 9 -15 -4 -26 0 -35 12 -24 33 -17 45 26 45 46 0 53 17 20 50 -26 26 -46
25 -75 -5z m57 -10 c4 -21 1 -25 -18 -25 -17 0 -24 6 -24 18 0 39 35 45 42 7z"/>
<path d="M6025 915 c-27 -26 -31 -54 -14 -88 16 -29 28 -37 60 -37 35 0 59 29
59 73 0 70 -59 99 -105 52z m63 -48 c2 -46 0 -59 -14 -64 -9 -3 -20 0 -25 8
-12 19 -11 76 2 100 18 34 34 15 37 -44z"/>
<path d="M6553 932 c-6 -4 -13 -37 -15 -75 -3 -66 -3 -67 22 -67 24 0 26 3 22
35 -2 19 -1 47 2 61 6 21 11 25 31 20 26 -7 43 10 27 26 -7 7 -17 6 -32 -2
-14 -8 -25 -8 -33 -1 -7 5 -18 7 -24 3z"/>
<path d="M6690 931 c-11 -4 -15 -23 -15 -74 0 -63 1 -67 23 -67 21 0 22 4 22
69 0 72 -4 83 -30 72z"/>
<path d="M7090 922 c-24 -19 -20 -42 6 -42 10 0 14 8 12 23 -2 14 2 22 12 22
11 0 16 -14 17 -52 2 -29 -2 -55 -7 -58 -16 -10 -24 23 -10 40 16 20 0 19 -28
-1 -43 -30 -18 -79 28 -54 16 9 25 9 35 0 9 -8 20 -8 31 -2 11 6 13 11 5 16
-6 4 -11 29 -11 55 0 26 -5 52 -12 59 -18 18 -52 15 -78 -6z"/>
<path d="M7343 930 c-28 -11 -32 -53 -5 -48 9 2 17 12 17 23 0 11 7 20 15 20
11 0 16 -14 17 -52 2 -29 -2 -55 -7 -58 -16 -10 -24 23 -10 40 16 20 0 19 -28
-1 -42 -29 -19 -79 27 -55 14 8 22 8 26 0 4 -5 14 -9 23 -7 13 2 15 15 13 63
-3 79 -27 99 -88 75z"/>
<path d="M7713 929 c28 -16 21 -47 -15 -65 -35 -18 -48 -31 -48 -51 0 -17 36
-26 58 -14 13 7 22 7 30 -1 6 -6 17 -8 24 -5 11 4 13 19 8 67 -6 63 -18 80
-55 80 -18 -1 -19 -1 -2 -11z m17 -89 c0 -13 -7 -20 -20 -20 -22 0 -23 1 -14
24 9 23 34 20 34 -4z"/>
<path d="M8218 929 c-10 -5 -18 -19 -18 -30 0 -14 5 -19 18 -17 11 2 16 11 14
27 -3 17 1 22 15 19 10 -2 19 -13 21 -25 3 -17 -5 -27 -32 -39 -41 -20 -52
-42 -32 -63 12 -12 20 -12 40 -3 17 7 27 8 32 1 3 -6 13 -9 22 -7 23 4 18 117
-5 136 -20 14 -51 15 -75 1z m52 -89 c0 -11 -6 -20 -13 -20 -19 0 -27 10 -20
26 8 21 33 17 33 -6z"/>
<path d="M8548 926 c-24 -18 -23 -63 1 -76 27 -14 26 -15 26 32 0 32 4 43 15
43 11 0 15 -11 15 -43 0 -23 2 -42 5 -42 17 1 32 22 39 52 8 35 8 36 -28 42
-49 8 -53 7 -73 -8z"/>
<path d="M8710 922 c-24 -20 -20 -42 7 -42 11 0 14 6 10 21 -7 24 21 39 34 18
14 -22 11 -27 -31 -54 -25 -16 -40 -33 -40 -45 0 -26 22 -35 50 -20 16 9 25 9
35 0 27 -23 39 -6 36 51 -4 83 -48 114 -101 71z m60 -76 c0 -8 -7 -19 -15 -26
-12 -10 -16 -9 -21 4 -7 18 13 49 27 40 5 -3 9 -11 9 -18z"/>
<path d="M8939 937 c0 -1 -1 -16 -2 -33 -1 -22 2 -30 11 -27 6 3 12 0 12 -6 0
-7 7 -28 16 -49 l15 -37 15 35 c9 21 11 36 5 38 -5 2 -15 18 -21 37 -6 18 -19
35 -30 38 -11 3 -20 4 -21 4z"/>
<path d="M9030 918 c0 -19 2 -20 10 -8 13 19 13 30 0 30 -5 0 -10 -10 -10 -22z"/>
<path d="M9100 922 c-24 -19 -20 -42 6 -42 10 0 14 8 12 23 -2 14 2 22 12 22
11 0 16 -14 17 -52 2 -29 -2 -55 -7 -58 -16 -10 -24 23 -10 40 16 20 0 19 -28
-1 -43 -30 -18 -79 28 -54 16 9 25 9 36 0 18 -16 50 -5 37 13 -5 6 -11 32 -12
57 -1 24 -7 50 -13 57 -15 19 -52 16 -78 -5z"/>
<path d="M2270 860 c0 -66 1 -70 23 -70 21 0 22 3 19 70 -3 61 -6 70 -23 70
-17 0 -19 -8 -19 -70z"/>
<path d="M2840 860 c0 -66 1 -70 23 -70 20 0 22 4 21 58 -2 82 -2 82 -24 82
-18 0 -20 -7 -20 -70z"/>
<path d="M3767 923 c-12 -12 -7 -43 6 -43 20 0 25 9 20 31 -5 20 -15 24 -26
12z"/>
<path d="M4025 860 c0 -68 1 -70 25 -70 25 0 25 1 22 70 -3 64 -5 70 -25 70
-20 0 -22 -5 -22 -70z"/>
<path d="M5310 861 c0 -68 1 -71 24 -71 23 0 24 2 22 68 -2 60 -5 67 -24 70
-21 3 -22 0 -22 -67z"/>
<path d="M7667 923 c-13 -12 -7 -43 8 -43 9 0 15 9 15 25 0 24 -10 32 -23 18z"/>
<path d="M8448 860 c-3 -69 -3 -70 22 -70 25 0 25 1 22 70 -3 60 -6 70 -22 70
-16 0 -19 -10 -22 -70z"/>
<path d="M8854 908 c7 -13 19 -41 26 -63 17 -56 26 -61 39 -24 6 18 8 35 3 38
-4 3 -14 21 -21 39 -10 23 -20 32 -37 32 -23 0 -24 -1 -10 -22z"/>
<path d="M2364 817 c-3 -9 -4 -23 -1 -31 3 -7 0 -19 -6 -25 -19 -19 10 -36 59
-36 34 0 49 5 60 19 26 36 11 56 -47 63 -24 3 -47 11 -51 17 -4 6 -9 4 -14 -7z
m93 -63 c6 -17 -44 -26 -67 -14 -12 6 -18 16 -14 21 8 13 76 7 81 -7z"/>
<path d="M8540 815 c-10 -12 -10 -18 0 -30 9 -10 9 -15 1 -15 -21 0 -11 -30
14 -42 30 -13 100 3 108 26 9 23 -16 46 -58 53 -22 3 -43 10 -46 15 -3 5 -12
2 -19 -7z m97 -62 c6 -16 -55 -27 -72 -13 -8 7 -12 17 -9 22 8 13 77 6 81 -9z"/>
<path d="M1338 530 c3 -81 5 -90 23 -90 20 0 23 22 19 128 -1 38 1 43 17 40
22 -4 31 -57 11 -69 -10 -7 -9 -9 4 -9 33 0 48 12 48 41 0 35 -23 49 -82 49
l-43 0 3 -90z"/>
<path d="M1635 530 c0 -79 2 -90 18 -90 15 0 17 11 17 90 0 79 -2 90 -17 90
-16 0 -18 -11 -18 -90z"/>
<path d="M1710 530 c0 -83 1 -90 20 -90 19 0 20 7 20 90 0 83 -1 90 -20 90
-19 0 -20 -7 -20 -90z"/>
<path d="M1910 530 c0 -83 1 -90 20 -90 15 0 20 7 20 25 0 14 5 25 10 25 6 0
16 -11 22 -25 6 -14 19 -25 30 -25 23 0 23 9 -2 40 -11 14 -20 32 -20 40 0 11
-3 11 -12 2 -22 -22 -28 -13 -28 43 0 48 -2 55 -20 55 -19 0 -20 -7 -20 -90z"/>
<path d="M2190 530 c0 -85 1 -90 21 -90 15 0 19 4 15 16 -3 9 -6 49 -6 90 0
59 -3 74 -15 74 -12 0 -15 -17 -15 -90z"/>
<path d="M2535 530 c0 -87 1 -90 23 -90 20 0 22 5 22 48 l1 47 29 -35 c17 -19
30 -40 30 -47 0 -8 13 -13 36 -13 l36 0 -48 55 c-26 31 -45 57 -43 59 2 3 21
18 43 35 33 26 35 31 17 31 -11 0 -21 -6 -21 -12 0 -12 -62 -68 -74 -68 -4 0
-6 18 -6 40 0 35 -3 40 -22 40 -22 0 -23 -3 -23 -90z"/>
<path d="M3120 589 c0 -26 -3 -29 -19 -24 -27 8 -61 -27 -61 -64 0 -33 22 -61
48 -61 12 0 13 3 4 12 -12 12 -17 90 -6 101 3 3 13 3 21 0 10 -4 14 -19 12
-57 -3 -45 -1 -51 16 -51 18 0 20 8 23 88 3 82 2 87 -18 87 -16 0 -20 -6 -20
-31z"/>
<path d="M3585 530 c0 -88 1 -90 24 -90 17 0 22 4 17 16 -3 9 -6 49 -6 90 0
64 -2 74 -17 74 -16 0 -18 -11 -18 -90z"/>
<path d="M3932 608 c-29 -29 2 -85 58 -103 27 -8 34 -37 14 -52 -10 -7 -13
-13 -8 -13 25 0 46 27 42 55 -2 23 -13 35 -46 54 -36 19 -43 28 -39 47 5 26
-3 30 -21 12z"/>
<path d="M4011 603 c7 -10 15 -20 16 -22 2 -2 3 3 3 11 0 9 -7 19 -16 22 -15
6 -15 4 -3 -11z"/>
<path d="M4205 611 c-7 -12 12 -24 25 -16 11 7 4 25 -10 25 -5 0 -11 -4 -15
-9z"/>
<path d="M4358 530 l3 -90 32 0 c21 0 28 3 19 9 -10 6 -13 30 -10 90 3 81 3
81 -22 81 l-25 0 3 -90z"/>
<path d="M4825 530 c0 -79 2 -90 18 -90 12 0 17 8 17 26 0 31 20 28 35 -4 6
-13 19 -22 32 -22 l22 0 -27 44 c-17 27 -31 41 -36 35 -20 -19 -26 -8 -26 46
0 46 -3 55 -17 55 -16 0 -18 -11 -18 -90z"/>
<path d="M1548 557 c6 -7 9 -34 8 -60 -2 -26 0 -48 5 -48 31 -6 33 -3 31 46
-2 32 -9 55 -20 63 -21 16 -37 16 -24 -1z"/>
<path d="M1838 558 c7 -7 12 -20 12 -30 0 -10 7 -18 15 -18 8 0 15 6 15 14 0
17 -27 46 -43 46 -8 0 -7 -4 1 -12z"/>
<path d="M2118 559 c6 -7 12 -21 12 -31 0 -10 7 -18 16 -18 11 0 14 5 10 16
-3 9 -6 17 -6 19 0 3 -10 10 -22 16 -19 9 -21 9 -10 -2z"/>
<path d="M2282 554 c-33 -23 -31 -90 2 -106 14 -6 33 -7 43 -3 16 8 16 9 -4
12 -12 3 -24 12 -26 21 -9 34 -6 71 4 78 13 8 31 -16 24 -33 -2 -8 4 -13 15
-13 25 0 25 15 0 40 -24 24 -29 24 -58 4z"/>
<path d="M2930 561 l-35 -6 0 -58 c0 -47 3 -57 17 -57 13 0 18 11 20 52 2 41
7 54 21 56 14 3 17 -5 17 -52 0 -49 3 -56 19 -56 18 0 19 5 14 58 -5 50 -17
75 -33 70 -3 0 -21 -4 -40 -7z"/>
<path d="M3247 558 c6 -7 11 -33 12 -56 1 -50 6 -62 27 -62 20 0 19 93 -2 114
-19 20 -51 22 -37 4z"/>
<path d="M3348 559 c-26 -15 -22 -35 12 -66 17 -14 30 -30 30 -35 0 -12 -34
-10 -49 5 -10 10 -11 8 -5 -6 5 -13 15 -17 38 -15 43 4 49 46 10 77 -16 13
-24 27 -20 36 6 18 6 18 -16 4z"/>
<path d="M3498 558 c15 -19 10 -90 -7 -96 -10 -3 -13 2 -9 21 4 23 3 25 -14
16 -45 -24 -29 -72 16 -51 16 7 28 8 31 2 4 -6 12 -10 19 -10 10 0 12 14 8 53
-4 48 -21 77 -45 77 -5 0 -5 -5 1 -12z"/>
<path d="M3679 552 c-25 -21 -30 -71 -9 -96 14 -18 56 -21 65 -6 3 6 -3 10
-13 10 -11 0 -23 7 -26 16 -10 26 -7 72 5 80 13 8 31 -16 24 -33 -2 -8 4 -13
15 -13 22 0 18 27 -8 48 -21 16 -26 15 -53 -6z"/>
<path d="M4142 561 c-7 -4 -24 -6 -38 -3 -23 4 -24 3 -24 -57 0 -54 2 -61 20
-61 17 0 20 7 20 50 0 47 2 50 25 50 16 0 25 6 25 15 0 17 -9 19 -28 6z"/>
<path d="M4582 549 c11 -18 10 -23 -12 -40 -54 -41 -53 -40 -37 -57 10 -9 22
-12 34 -7 12 5 14 9 6 12 -17 6 -16 28 1 42 12 10 15 7 18 -21 2 -22 9 -34 21
-36 14 -3 17 4 17 47 0 51 -17 81 -46 81 -12 0 -12 -4 -2 -21z"/>
<path d="M4732 561 c-7 -4 -24 -6 -38 -3 -23 4 -24 3 -24 -57 0 -54 2 -61 19
-61 17 0 20 8 23 52 4 74 28 77 28 4 0 -49 2 -56 20 -56 17 0 20 7 20 53 0 64
-17 88 -48 68z"/>
<path d="M5027 558 c13 -17 15 -86 3 -93 -19 -12 -31 5 -19 26 10 19 9 20 -11
9 -46 -25 -33 -74 14 -52 16 7 28 8 31 2 4 -6 12 -10 19 -10 10 0 12 14 8 53
-4 48 -21 77 -45 77 -6 0 -5 -5 0 -12z"/>
<path d="M1503 553 c-18 -6 -16 -33 1 -33 8 0 17 4 20 8 7 12 -7 30 -21 25z"/>
<path d="M1790 541 c-15 -29 -12 -67 6 -85 17 -18 60 -21 69 -6 3 6 -3 10 -14
10 -26 0 -32 11 -34 60 -1 44 -11 51 -27 21z"/>
<path d="M1990 550 c0 -5 7 -7 15 -4 8 4 15 8 15 10 0 2 -7 4 -15 4 -8 0 -15
-4 -15 -10z"/>
<path d="M2072 548 c-7 -7 -12 -28 -12 -48 0 -20 5 -41 12 -48 15 -15 54 -16
63 -2 3 6 -3 10 -14 10 -23 0 -36 35 -29 75 6 27 -1 32 -20 13z"/>
<path d="M2740 519 c0 -63 12 -77 65 -77 l45 1 0 59 c0 49 -3 58 -18 58 -14 0
-17 -7 -14 -40 4 -40 -12 -75 -29 -64 -5 3 -9 27 -9 55 0 42 -3 49 -20 49 -17
0 -20 -7 -20 -41z"/>
<path d="M3207 553 c-13 -12 -7 -33 8 -33 8 0 15 9 15 20 0 20 -11 26 -23 13z"/>
<path d="M3395 550 c3 -5 8 -10 11 -10 2 0 4 5 4 10 0 6 -5 10 -11 10 -5 0 -7
-4 -4 -10z"/>
<path d="M3451 547 c-12 -15 -5 -27 15 -27 7 0 12 9 11 20 -2 23 -10 25 -26 7z"/>
<path d="M4200 500 c0 -53 2 -60 20 -60 18 0 20 7 20 60 0 53 -2 60 -20 60
-18 0 -20 -7 -20 -60z"/>
<path d="M4537 553 c-12 -12 -7 -33 7 -33 9 0 14 9 13 20 -1 20 -9 25 -20 13z"/>
<path d="M4905 550 c4 -6 11 -8 16 -5 14 9 11 15 -7 15 -8 0 -12 -5 -9 -10z"/>
<path d="M4981 546 c-9 -10 -9 -16 -1 -21 16 -10 31 7 21 23 -6 10 -10 10 -20
-2z"/>
<path d="M1512 494 c-25 -17 -29 -42 -7 -50 20 -8 40 5 26 19 -7 7 -7 16 0 29
12 22 10 22 -19 2z"/>
<path d="M3218 496 c-32 -24 -18 -63 17 -50 13 5 14 8 3 15 -10 7 -11 12 0 29
14 23 5 26 -20 6z"/>
<path d="M3920 470 c0 -20 5 -25 27 -27 22 -1 24 1 10 8 -9 5 -21 17 -26 27
-9 15 -10 14 -11 -8z"/>
<path d="M2384 469 c-4 -7 0 -18 10 -25 11 -8 15 -18 11 -26 -6 -10 -5 -10 4
-2 15 14 11 56 -6 61 -6 2 -15 -1 -19 -8z"/>
<path d="M3780 461 c0 -13 6 -21 16 -21 11 0 14 -5 9 -17 -5 -14 -3 -15 5 -7
17 17 8 58 -12 62 -13 2 -18 -3 -18 -17z"/>
<path d="M4480 470 c0 -6 -10 -15 -22 -20 -22 -8 -22 -9 5 -9 21 -1 27 4 27
19 0 11 -2 20 -5 20 -3 0 -5 -5 -5 -10z"/>
</g>
</svg>
